REM MD5 a8d6d8e62e2018b0c525c06e4d4cd813
FILE "Autorennen Spezial '98 (Germany).bin" BINARY
  TRACK 01 MODE2/2352
    INDEX 01 00:00:00
  TRACK 02 AUDIO
    INDEX 00 22:42:15
    INDEX 01 22:44:15
  TRACK 03 AUDIO
    INDEX 00 26:04:45
    INDEX 01 26:06:45
  TRACK 04 AUDIO
    INDEX 00 31:15:64
    INDEX 01 31:17:64
  TRACK 05 AUDIO
    INDEX 00 31:29:37
    INDEX 01 31:31:37
  TRACK 06 AUDIO
    INDEX 00 35:05:41
    INDEX 01 35:07:41
REM LEADOUT 38:08:72
